<?xml version="1.0" standalone="no"?>
<!DOCTYPE svg PUBLIC "-//W3C//DTD SVG 20010904//EN"
 "http://www.w3.org/TR/2001/REC-SVG-20010904/DTD/svg10.dtd">
<svg version="1.0" xmlns="http://www.w3.org/2000/svg"
 width="512.000000pt" height="512.000000pt" viewBox="0 0 512.000000 512.000000"
 preserveAspectRatio="xMidYMid meet">
<metadata>
Created by potrace 1.11, written by Peter Selinger 2001-2013
</metadata>
<g transform="translate(0.000000,512.000000) scale(0.100000,-0.100000)"
fill="#000000" stroke="none">
<path d="M0 2560 l0 -2560 2560 0 2560 0 0 2560 0 2560 -2560 0 -2560 0 0
-2560z m3567 1526 c27 -23 28 -29 31 -125 3 -63 8 -104 16 -110 8 -7 194 -11
520 -13 l508 -3 24 -28 c31 -36 31 -78 0 -114 l-24 -28 -508 -3 c-326 -2 -512
-6 -520 -13 -8 -6 -13 -47 -16 -110 -3 -96 -4 -102 -31 -125 -16 -13 -41 -24
-57 -24 -16 0 -41 11 -57 24 -27 23 -28 29 -31 125 -3 64 -8 104 -16 110 -9 7
-477 12 -1450 13 l-1438 3 -24 28 c-31 36 -31 78 0 114 l24 28 1438 3 c973 1
1441 6 1450 13 8 6 13 46 16 110 3 96 4 102 31 125 16 13 41 24 57 24 16 0 41
-11 57 -24z m-940 -1200 c27 -23 28 -29 31 -125 3 -64 8 -104 16 -110 9 -7
337 -12 990 -13 l978 -3 24 -28 c31 -36 31 -78 0 -114 l-24 -28 -978 -3 c-653
-1 -981 -6 -990 -13 -8 -6 -13 -46 -16 -110 -3 -96 -4 -102 -31 -125 -16 -13
-41 -24 -57 -24 -16 0 -41 11 -57 24 -27 23 -28 29 -31 125 -3 64 -8 104 -16
110 -9 7 -334 12 -980 13 l-968 3 -24 28 c-31 36 -31 78 0 114 l24 28 968 3
c646 1 971 6 980 13 8 6 13 46 16 110 3 96 4 102 31 125 16 13 41 24 57 24 16
0 41 -11 57 -24z m1400 -1200 c27 -23 28 -29 31 -125 3 -62 8 -104 16 -110 7
-6 124 -11 290 -13 l278 -3 24 -28 c13 -16 24 -41 24 -57 0 -16 -11 -41 -24
-57 l-24 -28 -278 -3 c-166 -2 -283 -7 -290 -13 -8 -6 -13 -48 -16 -110 -3
-96 -4 -102 -31 -125 -36 -31 -78 -31 -114 0 -27 23 -28 29 -31 125 -3 64 -8
104 -16 110 -9 8 -547 12 -1680 13 l-1668 3 -24 28 c-31 36 -31 78 0 114 l24
28 1668 3 c1133 1 1671 5 1680 13 8 6 13 46 16 110 3 96 4 102 31 125 16 13
41 24 57 24 16 0 41 -11 57 -24z"/>
</g>
</svg>
